<svg height="512pt" viewBox="-53 0 512 512" width="512pt" xmlns="http://www.w3.org/2000/svg"><path d="m48.199219 140.316406h-26.164063c-12.167968 0-22.035156-9.867187-22.035156-22.039062v-13.230469c0-12.167969 9.867188-22.035156 22.035156-22.035156h26.164063zm0 0" fill="#6a829a"/><path d="m48.199219 256h-26.164063c-12.167968 0-22.035156-9.867188-22.035156-22.035156v-38.804688c0-12.171875 9.867188-22.039062 22.035156-22.039062h26.164063zm0 0" fill="#6a829a"/><path d="m279.550781 512h-196.433593c-29.824219 0-54.003907-24.179688-54.003907-54.007812v-403.984376c-.003906-29.828124 24.179688-54.007812 54.003907-54.007812h269.726562c29.828125 0 54.007812 24.179688 54.007812 54.007812v330.691407c0 70.308593-56.996093 127.300781-127.300781 127.300781zm0 0" fill="#a7b6c5"/><path d="m134.976562 512v-465.753906c0-25.539063 20.707032-46.246094 46.25-46.246094h-98.109374c-29.824219 0-54.007813 24.179688-54.007813 54.007812v403.984376c0 29.828124 24.179687 54.007812 54.007813 54.007812zm0 0" fill="#889cb0"/><path d="m310.171875 256h-184.378906c-19.039063 0-34.472657-15.433594-34.472657-34.46875v-126.472656c0-19.039063 15.433594-34.46875 34.472657-34.46875h184.378906c19.035156 0 34.46875 15.429687 34.46875 34.46875v126.472656c0 19.035156-15.433594 34.46875-34.46875 34.46875zm0 0" fill="#b9ecc2"/><path d="m125.792969 60.589844c-19.039063 0-34.472657 15.429687-34.472657 34.46875v126.472656c0 19.035156 15.433594 34.46875 34.472657 34.46875h9.183593v-195.410156zm0 0" fill="#73da8c"/><path d="m172.625 328.585938h-20.902344v-20.90625c0-11.292969-9.160156-20.453126-20.453125-20.453126-11.296875 0-20.453125 9.160157-20.453125 20.453126v20.90625h-20.90625c-11.296875 0-20.453125 9.15625-20.453125 20.453124 0 11.292969 9.15625 20.453126 20.453125 20.453126h20.90625v20.902343c0 11.296875 9.15625 20.453125 20.453125 20.453125 11.292969 0 20.453125-9.15625 20.453125-20.453125v-20.902343h20.902344c11.292969 0 20.453125-9.160157 20.453125-20.453126 0-11.296874-9.15625-20.453124-20.453125-20.453124zm0 0" fill="#516980"/><path d="m286.367188 349.039062c0 14.578126-11.820313 26.398438-26.402344 26.398438-14.578125 0-26.398438-11.820312-26.398438-26.398438 0-14.582031 11.820313-26.402343 26.398438-26.402343 14.582031 0 26.402344 11.820312 26.402344 26.402343zm0 0" fill="#c2eafb"/><path d="m365.867188 349.039062c0 14.578126-11.816407 26.398438-26.398438 26.398438-14.578125 0-26.398438-11.820312-26.398438-26.398438 0-14.582031 11.820313-26.402343 26.398438-26.402343 14.582031 0 26.398438 11.820312 26.398438 26.402343zm0 0" fill="#ffbfc7"/><path d="m202.195312 454.15625-20.59375 20.59375c-6.109374 6.109375-16.015624 6.109375-22.125 0-6.109374-6.109375-6.109374-16.015625 0-22.125l20.59375-20.59375c6.109376-6.109375 16.015626-6.109375 22.125 0 6.109376 6.109375 6.109376 16.015625 0 22.125zm0 0" fill="#fffcdc"/><path d="m276.484375 454.15625-20.589844 20.59375c-6.109375 6.109375-16.015625 6.109375-22.125 0s-6.109375-16.015625 0-22.125l20.589844-20.59375c6.113281-6.109375 16.015625-6.109375 22.125 0s6.109375 16.015625 0 22.125zm0 0" fill="#fffcdc"/><path d="m160.480469 165.394531c0-9.351562-9.519531-16.933593-21.265625-16.933593-11.742188 0-21.261719 7.582031-21.261719 16.933593 0 9.351563 9.519531 16.933594 21.261719 16.933594 11.746094 0 21.265625-7.582031 21.265625-16.933594zm0 0" fill="#ffb3c2"/><path d="m318.011719 165.394531c0-9.351562-9.519531-16.933593-21.265625-16.933593-11.742188 0-21.261719 7.582031-21.261719 16.933593 0 9.351563 9.519531 16.933594 21.261719 16.933594 11.746094 0 21.265625-7.582031 21.265625-16.933594zm0 0" fill="#ffb3c2"/><g fill="#454545"><path d="m281.652344 162.539062c-4.269532 0-7.726563-3.457031-7.726563-7.726562v-12.824219c0-4.269531 3.457031-7.726562 7.726563-7.726562 4.269531 0 7.726562 3.457031 7.726562 7.726562v12.824219c0 4.269531-3.457031 7.726562-7.726562 7.726562zm0 0"/><path d="m154.308594 162.539062c-4.269532 0-7.726563-3.457031-7.726563-7.726562v-12.824219c0-4.269531 3.457031-7.726562 7.726563-7.726562 4.269531 0 7.726562 3.457031 7.726562 7.726562v12.824219c0 4.269531-3.457031 7.726562-7.726562 7.726562zm0 0"/><path d="m223.257812 147.09375c-1.730468 2.542969-4.253906 2.847656-5.277343 2.847656-1.023438 0-3.589844-.277344-5.277344-2.847656-2.34375-3.566406-7.132813-4.558594-10.699219-2.214844s-4.558594 7.132813-2.214844 10.699219c4.035157 6.148437 10.835938 9.816406 18.191407 9.816406s14.15625-3.667969 18.191406-9.816406c2.34375-3.566406 1.351563-8.355469-2.214844-10.699219-1.308593-.859375-7.089843-3.082031-10.699219 2.214844zm0 0"/></g></svg>